<svg width="40" height="40" viewBox="0 0 40 40" fill="none" xmlns="http://www.w3.org/2000/svg">
<path d="M38.125 19.8876C38.1494 23.0542 37.3397 26.1714 35.7773 28.9259C35.575 29.2837 35.3607 29.6337 35.1344 29.9759C35.0225 30.1498 34.8772 30.2998 34.7069 30.4171C34.5366 30.5345 34.3447 30.6169 34.1424 30.6595C33.94 30.7021 33.7312 30.7041 33.528 30.6655C33.3249 30.6268 33.1314 30.5482 32.9589 30.4341C32.7864 30.3201 32.6382 30.173 32.5229 30.0013C32.4077 29.8296 32.3277 29.6367 32.2875 29.4338C32.2474 29.231 32.2479 29.0222 32.2891 28.8195C32.3302 28.6168 32.4112 28.4244 32.5273 28.2532C34.0185 25.9897 34.8685 23.3644 34.9869 20.6564C35.1054 17.9484 34.4879 15.2589 33.2001 12.8738C31.9122 10.4887 30.0022 8.49708 27.673 7.11069C25.3438 5.7243 22.6824 4.99493 19.9719 5.0001C14.7617 5.01026 10.1422 7.74541 7.45703 11.8321C5.85185 14.2703 4.99768 17.1259 5.00046 20.045C5.00324 22.9641 5.86284 25.8182 7.47265 28.2532C7.70088 28.5991 7.78235 29.0216 7.69913 29.4275C7.61591 29.8335 7.37482 30.1898 7.0289 30.4181C6.68298 30.6463 6.26056 30.7278 5.85458 30.6445C5.44859 30.5613 5.09229 30.3202 4.86406 29.9743C3.07906 27.2655 2.05377 24.1272 1.89517 20.887C1.73658 17.6468 2.45049 14.4235 3.96241 11.5533C5.47433 8.68306 7.72885 6.27121 10.4907 4.56941C13.2526 2.86761 16.4205 1.93822 19.6641 1.87822C19.7781 1.87588 19.8914 1.8751 20.0047 1.8751C24.7948 1.86523 29.3932 3.75637 32.7905 7.13341C36.1877 10.5105 38.1063 15.0975 38.125 19.8876Z" fill="#6D28D9"/>
<path d="M9.06588 22.7944L11.8978 36.8819C12.0678 37.7276 12.8911 38.2753 13.7368 38.1053C14.5825 37.9353 15.1303 37.112 14.9603 36.2663L12.1284 22.1788C11.9584 21.3331 11.135 20.7853 10.2893 20.9553C9.44363 21.1253 8.89588 21.9487 9.06588 22.7944Z" fill="#6D28D9"/>
<path d="M11.8438 36.5641L11.1258 36.7086C10.059 36.9234 8.95036 36.7225 8.02675 36.147C7.10313 35.5715 6.4343 34.6649 6.15703 33.6125C6.13594 33.5313 6.11641 33.45 6.1 33.3672L5.0711 28.2555C4.84812 27.1459 5.07483 25.9931 5.70138 25.0506C6.32794 24.1081 7.30308 23.4528 8.4125 23.2289L9.13047 23.0844L10.3898 29.3407L11.8438 36.5641Z" fill="#6D28D9"/>
<path d="M11.8437 36.5641L11.1258 36.7087C10.0589 36.9235 8.95035 36.7226 8.02674 36.1471C7.10313 35.5715 6.43429 34.6649 6.15703 33.6126C7.6744 32.2982 9.08944 30.8701 10.3898 29.3407L11.8437 36.5641Z" fill="#6D28D9"/>
<path d="M36.1476 27.0875L35.7773 28.9258C35.575 29.2836 35.3607 29.6336 35.1344 29.9758C35.0225 30.1497 34.8772 30.2997 34.7069 30.4171C34.5366 30.5344 34.3447 30.6168 34.1424 30.6594C33.94 30.702 33.7312 30.7041 33.528 30.6654C33.3249 30.6267 33.1314 30.5481 32.9589 30.4341C32.7864 30.3201 32.6382 30.1729 32.5229 30.0012C32.4077 29.8295 32.3276 29.6366 32.2875 29.4338C32.2474 29.2309 32.2479 29.0221 32.2891 28.8194C32.3302 28.6168 32.4112 28.4243 32.5273 28.2531C33.5865 26.6502 34.3258 24.8577 34.7047 22.9742C35.2927 23.4669 35.7371 24.1089 35.991 24.8327C36.245 25.5566 36.2991 26.3355 36.1476 27.0875Z" fill="#6D28D9"/>
<path d="M34.2953 8.82973L32.0539 11.0711C30.6573 9.18253 28.836 7.64894 26.7371 6.59429C24.6383 5.53965 22.3208 4.99352 19.9719 5.00005C14.7617 5.0102 10.1422 7.74536 7.45703 11.8321L5.18359 9.55864C6.82274 7.2294 8.98843 5.31987 11.5046 3.98529C14.0207 2.65072 16.8163 1.92878 19.6641 1.87817C19.7781 1.87583 19.8914 1.87505 20.0047 1.87505C22.7591 1.86887 25.4786 2.49226 27.9553 3.69759C30.4321 4.90292 32.6006 6.65832 34.2953 8.82973Z" fill="#6D28D9"/>
<path d="M27.8463 22.1635L25.0144 36.251C24.8444 37.0967 25.3921 37.9201 26.2378 38.0901C27.0835 38.2601 27.9069 37.7123 28.0769 36.8667L30.9088 22.7792C31.0788 21.9335 30.531 21.1101 29.6853 20.9401C28.8396 20.7701 28.0163 21.3178 27.8463 22.1635Z" fill="#6D28D9"/>
<path d="M34.9289 28.2555L33.9 33.3672C33.6766 34.4768 33.0216 35.4521 32.0791 36.0788C31.1366 36.7054 29.9838 36.932 28.8742 36.7086L28.1562 36.5641L28.9 32.8711L30.8695 23.0844L31.5875 23.2289C32.6968 23.4531 33.672 24.108 34.2992 25.05C34.3856 25.1799 34.4646 25.3145 34.5359 25.4532C34.9817 26.3154 35.1203 27.3039 34.9289 28.2555Z" fill="#6D28D9"/>
<path d="M34.9289 28.2555L33.9 33.3672C33.6766 34.4768 33.0216 35.4522 32.0791 36.0788C31.1366 36.7054 29.9838 36.932 28.8742 36.7087L28.1562 36.5641L28.9 32.8712C31.0403 30.6087 32.9299 28.1216 34.5359 25.4532C34.9817 26.3155 35.1203 27.3039 34.9289 28.2555Z" fill="#6D28D9"/>
</svg>
